<?xml version="1.0" encoding="UTF-8"?>
<svg width="115px" height="138px" viewBox="0 0 115 138" version="1.1" xmlns="http://www.w3.org/2000/svg" xmlns:xlink="http://www.w3.org/1999/xlink">
    <title>idea</title>
    <defs>
        <filter x="-11.4%" y="-11.4%" width="122.7%" height="122.7%" filterUnits="objectBoundingBox" id="filter-1">
            <feOffset dx="0" dy="2" in="SourceAlpha" result="shadowOffsetOuter1"></feOffset>
            <feGaussianBlur stdDeviation="3.5" in="shadowOffsetOuter1" result="shadowBlurOuter1"></feGaussianBlur>
            <feColorMatrix values="0 0 0 0 0.184313725   0 0 0 0 0.184313725   0 0 0 0 0.184313725  0 0 0 0.5 0" type="matrix" in="shadowBlurOuter1" result="shadowMatrixOuter1"></feColorMatrix>
            <feMerge>
                <feMergeNode in="shadowMatrixOuter1"></feMergeNode>
                <feMergeNode in="SourceGraphic"></feMergeNode>
            </feMerge>
        </filter>
        <filter id="filter-2">
            <feColorMatrix in="SourceGraphic" type="matrix" values="0 0 0 0 0.392157 0 0 0 0 0.447059 0 0 0 0 0.917647 0 0 0 1.000000 0"></feColorMatrix>
        </filter>
    </defs>
    <g id="Page-1" stroke="none" stroke-width="1" fill="none" fill-rule="evenodd">
        <g id="Home-Copy-14" transform="translate(-46.000000, -262.000000)">
            <g id="Group-2" filter="url(#filter-1)" transform="translate(26.000000, 254.000000)">
                <g filter="url(#filter-2)" id="idea">
                    <g transform="translate(33.000000, 21.000000)">
                        <path d="M44.5,11 C45.328375,11 46,10.179125 46,9.16666667 L46,1.83333333 C46,0.820875 45.328375,0 44.5,0 C43.671625,0 43,0.820875 43,1.83333333 L43,9.16666667 C43,10.179125 43.6714375,11 44.5,11 Z" id="Path" fill="#000000" fill-rule="nonzero"></path>
                        <path d="M22.2402261,9.02583443 L25.7340888,15.9835853 C26.2110011,16.9482374 27.2775026,17.2855266 28.1162481,16.7370236 C28.9549935,16.1885205 29.2482596,14.9619231 28.7713473,13.997271 C28.7676351,13.9894855 28.7637045,13.9819511 28.7597739,13.9741656 L25.2659112,7.01641467 C24.7889989,6.05176259 23.7224974,5.71447341 22.8837519,6.26297644 C22.0450065,6.81147947 21.7517404,8.03807691 22.2286527,9.00272899 C22.2323649,9.01051452 22.2362955,9.01830005 22.2402261,9.02583443 Z" id="Path" fill="#000000" fill-rule="nonzero"></path>
                        <path d="M6.99344729,25.2543294 C7.00098186,25.2582601 7.00876759,25.2619724 7.01655331,25.2659032 L13.9744788,28.7598857 C14.9318717,29.247733 16.1627695,28.9686511 16.7238439,28.1362098 C17.2849183,27.3037685 16.9639456,26.2335179 16.0065527,25.7456706 C15.9990181,25.7417399 15.9912324,25.7380276 15.9834467,25.7340968 L9.02552119,22.2401143 C8.06812832,21.752267 6.83723051,22.0313489 6.2761561,22.8637902 C5.71508168,23.6960132 6.03605442,24.7664821 6.99344729,25.2543294 Z" id="Path" fill="#000000" fill-rule="nonzero"></path>
                        <path d="M11,44.5 C11,43.671625 10.179125,43 9.16666667,43 L1.83333333,43 C0.820875,43 0,43.671625 0,44.5 C0,45.328375 0.820875,46 1.83333333,46 L9.16666667,46 C10.179125,46 11,45.328375 11,44.5 Z" id="Path" fill="#000000" fill-rule="nonzero"></path>
                        <path d="M13.9977665,61.2284465 C13.989981,61.232377 13.9821955,61.2363076 13.97441,61.2402382 L7.01667799,64.7340879 C6.05202853,65.2107801 5.71448912,66.2772777 6.26273952,67.11602 C6.81098991,67.9547623 8.03758402,68.2482457 9.00223348,67.7715535 C9.01001899,67.767623 9.01780449,67.7636924 9.02559,67.7597618 L15.983322,64.2659121 C16.9479715,63.7892199 17.2855109,62.7227223 16.7372605,61.88398 C16.1890101,61.0452377 14.962416,60.7517543 13.9977665,61.2284465 Z" id="Path" fill="#000000" fill-rule="nonzero"></path>
                        <path d="M82.0069025,64.7458776 C81.999117,64.7419471 81.9913316,64.7380166 81.9835461,64.734086 L75.0258561,61.2402651 C74.0687468,60.752222 72.8376395,61.0312909 72.2763329,61.8634754 C71.7150263,62.6956599 72.0359882,63.7660792 72.9930975,64.2541224 C73.000883,64.2580529 73.0086684,64.2619834 73.0164539,64.265914 L79.9741439,67.7597349 C80.9312532,68.247778 82.1623605,67.9687091 82.7236671,67.1365246 C83.2849737,66.3041218 82.9640118,65.2339208 82.0069025,64.7458776 Z" id="Path" fill="#000000" fill-rule="nonzero"></path>
                        <path d="M87.1666667,43 L79.8333333,43 C78.820875,43 78,43.671625 78,44.5 C78,45.328375 78.820875,46 79.8333333,46 L87.1666667,46 C88.179125,46 89,45.328375 89,44.5 C89,43.671625 88.179125,43 87.1666667,43 Z" id="Path" fill="#000000" fill-rule="nonzero"></path>
                        <path d="M74.0117985,29 C74.3647788,29 74.7117252,28.9191335 75.0174403,28.7657058 L81.9825154,25.2687771 C82.9481829,24.7914464 83.2858272,23.7240089 82.7367467,22.8845275 C82.1876663,22.045046 80.9597777,21.7515226 79.9941101,22.2288533 C79.9863164,22.2325688 79.9787741,22.2365029 79.9709804,22.2404369 L73.0059053,25.7373656 C72.0440089,26.2201603 71.7144098,27.2895648 72.2697755,28.1257678 C72.6292924,28.666699 73.2932674,29 74.0117985,29 Z" id="Path" fill="#000000" fill-rule="nonzero"></path>
                        <path d="M60.8730695,16.7295023 C60.8737251,16.7300051 60.8743807,16.7305078 60.8750363,16.7307592 C61.7113424,17.2855432 62.7805992,16.9554882 63.2628902,15.9932257 C63.2628902,15.9929744 63.2631087,15.992723 63.2631087,15.992723 L66.7595544,9.02863745 C67.2479642,8.07064835 66.9686856,6.83840942 66.1358759,6.2765869 C65.3030662,5.71476437 64.2318427,6.03602128 63.7434329,6.99401038 C63.7394994,7.001803 63.7355659,7.00959561 63.7316324,7.01738823 L60.2351867,13.9814738 C59.7518031,14.9429821 60.037419,16.1732101 60.8730695,16.7295023 Z" id="Path" fill="#000000" fill-rule="nonzero"></path>
                        <path d="M48.1666667,75 C49.179125,75 50,74.149275 50,73.1 L50,52.2 L53.6666667,52.2 C57.7167292,52.2 61,48.7973375 61,44.6 C61,40.4026625 57.7167292,37 53.6666667,37 C49.6166042,37 46.3333333,40.4026625 46.3333333,44.6 L46.3333333,48.4 L42.6666667,48.4 L42.6666667,44.6 C42.6666667,40.4026625 39.3833958,37 35.3333333,37 C31.2832708,37 28,40.4026625 28,44.6 C28,48.7973375 31.2832708,52.2 35.3333333,52.2 L39,52.2 L39,73.1 C39,74.149275 39.820875,75 40.8333333,75 C41.8457917,75 42.6666667,74.149275 42.6666667,73.1 L42.6666667,52.2 L46.3333333,52.2 L46.3333333,73.1 C46.3333333,74.149275 47.1539792,75 48.1666667,75 Z M50,44.6 C50,42.5012125 51.6415208,40.8 53.6666667,40.8 C55.6918125,40.8 57.3333333,42.5012125 57.3333333,44.6 C57.3333333,46.6987875 55.6918125,48.4 53.6666667,48.4 L50,48.4 L50,44.6 Z M39,48.4 L35.3333333,48.4 C33.3081875,48.4 31.6666667,46.6987875 31.6666667,44.6 C31.6666667,42.5012125 33.3081875,40.8 35.3333333,40.8 C37.3584792,40.8 39,42.5012125 39,44.6 L39,48.4 Z" id="Shape" fill="#000000" fill-rule="nonzero"></path>
                        <path d="M46.4481258,15.0350103 C29.8942531,14.2440935 15.8298731,26.9498262 15.0346608,43.4142789 C14.5791486,52.8418575 18.6342156,61.9280734 25.9695334,67.9163765 C27.2915269,68.9462938 28.0780651,70.512738 28.1113552,72.1824771 L28.1113552,76.5567691 C28.1212016,78.9197262 29.6223055,81.0219979 31.8623566,81.8096502 L31.8623566,84.018248 C31.8672798,85.3993211 32.388669,86.7293297 33.3252472,87.7489874 C31.3747265,89.8577879 31.3747265,93.1016658 33.3252472,95.2104663 C31.2401593,97.4838857 31.402859,101.008035 33.6886255,103.08186 C34.7269496,104.023872 36.0834055,104.543377 37.4888588,104.537315 C38.4983471,104.563663 39.338337,103.770881 39.364594,102.766846 C39.3749092,102.375118 39.2576904,101.990386 39.0305204,101.670242 C38.9712077,101.556221 38.9008764,101.448029 38.8204643,101.347533 C38.6662044,101.207164 38.4901418,101.092443 38.2990751,101.008035 C38.2446856,100.980055 38.1902961,100.95767 38.1340311,100.935286 C37.9441366,100.8665 37.7450991,100.826861 37.5432483,100.817768 C37.5244933,100.817768 37.5076138,100.806575 37.4888588,100.806575 C36.4531135,100.806575 35.6133581,99.9713562 35.6133581,98.9412057 C35.6133581,97.9110553 36.4531135,97.075836 37.4888588,97.075836 L44.9908617,97.075836 C46.026607,97.075836 46.8663624,96.2406167 46.8663624,95.2104663 C46.8663624,94.1803159 46.026607,93.3450966 44.9908617,93.3450966 L37.4888588,93.3450966 C36.4531135,93.3450966 35.6133581,92.5098773 35.6133581,91.4797269 C35.6133581,90.4495764 36.4531135,89.6143571 37.4888588,89.6143571 L44.9908617,89.6143571 C46.026607,89.6143571 46.8663624,88.7791378 46.8663624,87.7489874 C46.8663624,86.718837 46.026607,85.8836177 44.9908617,85.8836177 L37.4888588,85.8836177 C36.4531135,85.8836177 35.6133581,85.0483984 35.6133581,84.018248 L35.6133581,82.1528783 L44.9908617,82.1528783 C46.026607,82.1528783 46.8663624,81.317659 46.8663624,80.2875085 C46.8663624,79.2573581 46.026607,78.4221388 44.9908617,78.4221388 L33.7378574,78.4221388 C32.7021121,78.4221388 31.8623566,77.5869195 31.8623566,76.5567691 L31.8623566,72.1824771 C31.8316453,69.393283 30.5401286,66.7659098 28.3457928,65.0287842 C17.1424892,55.8712179 15.5246354,39.4144599 24.7319373,28.2716738 C29.9988122,21.8977055 37.9842254,18.3740221 46.2699532,18.7676151 C60.1268559,19.5874451 71.0115587,30.8824919 71.2478718,44.6869274 C71.3151554,52.6268736 67.7256815,60.1608687 61.5046456,65.1369757 C59.3267204,66.9212018 58.0813879,69.5926444 58.1193668,72.39886 L58.1193668,76.5567691 C58.1193668,77.5869195 57.2796113,78.4221388 56.243866,78.4221388 L50.6173639,78.4221388 C49.5816186,78.4221388 48.7418632,79.2573581 48.7418632,80.2875085 C48.7418632,81.317659 49.5816186,82.1528783 50.6173639,82.1528783 L54.3683653,82.1528783 L54.3683653,84.018248 C54.3683653,85.0483984 53.5286099,85.8836177 52.4928646,85.8836177 L50.6173639,85.8836177 C49.5816186,85.8836177 48.7418632,86.718837 48.7418632,87.7489874 C48.7418632,88.7791378 49.5816186,89.6143571 50.6173639,89.6143571 L52.4928646,89.6143571 C53.5286099,89.6143571 54.3683653,90.4495764 54.3683653,91.4797269 C54.3683653,92.5098773 53.5286099,93.3450966 52.4928646,93.3450966 L50.6173639,93.3450966 C49.5816186,93.3450966 48.7418632,94.1803159 48.7418632,95.2104663 C48.7418632,96.2406167 49.5816186,97.075836 50.6173639,97.075836 L52.4928646,97.075836 C53.5286099,97.075836 54.3683653,97.9110553 54.3683653,98.9412057 C54.3683653,99.9713562 53.5286099,100.806575 52.4928646,100.806575 L43.115361,100.806575 C42.0796157,100.806575 41.2398603,101.641795 41.2398603,102.671945 C41.2398603,103.702096 42.0796157,104.537315 43.115361,104.537315 L50.2966533,104.537315 C49.2611424,107.451256 46.0465342,108.978527 43.1167676,107.94861 C42.2198094,107.633362 41.4180328,107.096835 40.7859891,106.389627 C40.0972114,105.620162 38.9114261,105.55161 38.1377821,106.236667 C37.364138,106.921724 37.2952134,108.101104 37.983991,108.870569 C41.4140474,112.714863 47.32797,113.065785 51.1931426,109.65449 C52.7896626,108.245437 53.8537748,106.335998 54.2089478,104.242586 C57.1462163,103.329488 58.7830596,100.221083 57.8652364,97.2996804 C57.6214213,96.5234534 57.2085767,95.8101827 56.6564762,95.2104663 C58.606997,93.1016658 58.606997,89.8577879 56.6564762,87.7489874 C57.5930544,86.7293297 58.1144436,85.3993211 58.1193668,84.018248 L58.1193668,81.8096502 C60.3594179,81.0219979 61.8605218,78.9197262 61.8703682,76.5567691 L61.8703682,72.39886 C61.8452834,70.7230585 62.5753221,69.1237371 63.8602745,68.0394909 C70.9740487,62.3512791 75.0781132,53.7370018 74.9988733,44.6589468 C74.7278634,28.8807171 62.2862605,15.9716591 46.4481258,15.0350103 Z" id="Path" fill="#000000" fill-rule="nonzero"></path>
                    </g>
                </g>
            </g>
        </g>
    </g>
</svg>