<?xml version="1.0" encoding="UTF-8"?>
<svg width="43px" height="52px" viewBox="0 0 43 52" version="1.1" xmlns="http://www.w3.org/2000/svg" xmlns:xlink="http://www.w3.org/1999/xlink">
    <title>idea</title>
    <g id="Page-1" stroke="none" stroke-width="1" fill="none" fill-rule="evenodd">
        <g id="Home-Copy-17" transform="translate(-47.000000, -939.000000)" fill="#000000" fill-rule="nonzero">
            <g id="Group-2" transform="translate(26.000000, 899.000000)">
                <g id="idea" transform="translate(21.000000, 40.000000)">
                    <path d="M22,6 C22.55225,6 23,5.55225 23,5 L23,1 C23,0.44775 22.55225,0 22,0 C21.44775,0 21,0.44775 21,1 L21,5 C21,5.55225 21.447625,6 22,6 Z" id="Path"></path>
                    <path d="M9.10295404,3.65045514 L10.6003238,7.445592 C10.8047147,7.97176586 11.2617868,8.15574178 11.6212492,7.8565583 C11.9807115,7.55737483 12.106397,6.88832169 11.902006,6.36214782 C11.900415,6.35790117 11.8987305,6.35379151 11.897046,6.34954486 L10.3996762,2.554408 C10.1952853,2.02823414 9.73821315,1.84425822 9.37875083,2.1434417 C9.01928851,2.44262517 8.89360304,3.11167831 9.09799401,3.63785218 C9.09958496,3.64209883 9.1012695,3.64634548 9.10295404,3.65045514 Z" id="Path"></path>
                    <path d="M2.54188034,10.3947126 C2.54599011,10.3963972 2.55023687,10.3979882 2.55448362,10.3996728 L6.34971572,11.8970939 C6.87193001,12.1061713 7.54332881,11.9865648 7.8493694,11.6298042 C8.15540999,11.2730436 7.98033395,10.8143648 7.45811966,10.6052874 C7.45400989,10.6036028 7.44976313,10.6020118 7.44551638,10.6003272 L3.65028428,9.10290614 C3.12806999,8.89382873 2.45667119,9.01343523 2.1506306,9.3701958 C1.84459001,9.72686278 2.01966605,10.1856352 2.54188034,10.3947126 Z" id="Path"></path>
                    <path d="M6,21 C6,20.44775 5.55225,20 5,20 L1,20 C0.44775,20 0,20.44775 0,21 C0,21.55225 0.44775,22 1,22 L5,22 C5.55225,22 6,21.55225 6,21 Z" id="Path"></path>
                    <path d="M6.3624181,28.0979056 C6.35817146,28.0995902 6.35392482,28.1012747 6.34967818,28.1029592 L2.55455163,29.6003234 C2.0283792,29.80462 1.84426679,30.2616904 2.14331246,30.6211514 C2.44235813,30.9806124 3.11140946,31.106391 3.6375819,30.9020944 C3.64182854,30.9004098 3.64607518,30.8987253 3.65032182,30.8970408 L7.44544837,29.3996766 C7.9716208,29.19538 8.15573321,28.7383096 7.85668754,28.3788486 C7.55764187,28.0193876 6.88859054,27.893609 6.3624181,28.0979056 Z" id="Path"></path>
                    <path d="M40.4583104,29.6053761 C40.4540638,29.6036916 40.4498172,29.6020071 40.4455706,29.6003226 L36.650467,28.1029707 C36.1284073,27.8938094 35.4568943,28.0134104 35.150727,28.3700609 C34.8445598,28.7267114 35.0196299,29.1854625 35.5416896,29.3946239 C35.5459362,29.3963084 35.5501828,29.3979929 35.5544294,29.3996774 L39.349533,30.8970293 C39.8715927,31.1061906 40.5431057,30.9865896 40.849273,30.6299391 C41.1554402,30.273195 40.9803701,29.8145375 40.4583104,29.6053761 Z" id="Path"></path>
                    <path d="M42,20 L38,20 C37.44775,20 37,20.44775 37,21 C37,21.55225 37.44775,22 38,22 L42,22 C42.55225,22 43,21.55225 43,21 C43,20.44775 42.55225,20 42,20 Z" id="Path"></path>
                    <path d="M36.0973446,12 C36.2898793,12 36.4791228,11.9653429 36.6458765,11.8995882 L40.4450084,10.4009045 C40.9717361,10.1963342 41.1559057,9.73886095 40.8564073,9.37908319 C40.5569089,9.01930544 39.8871515,8.89350967 39.3604237,9.09808 C39.3561726,9.09967235 39.3520586,9.10135837 39.3478075,9.10304439 L35.5486756,10.6017281 C35.0240049,10.8086401 34.8442235,11.2669563 35.1471503,11.6253291 C35.3432504,11.8571567 35.7054186,12 36.0973446,12 Z" id="Path"></path>
                    <path d="M31.3741726,7.85245582 C31.3744536,7.85273005 31.3747346,7.85300427 31.3750155,7.85314139 C31.7334324,8.15575086 32.1916854,7.97572085 32.3983815,7.45085041 C32.3983815,7.45071329 32.3984752,7.45057618 32.3984752,7.45057618 L33.8969519,3.65198406 C34.1062704,3.12944456 33.9865795,2.45731423 33.6296611,2.15086558 C33.2727427,1.84441693 32.8136469,2.01964797 32.6043284,2.54218748 C32.6026426,2.546438 32.6009568,2.55068852 32.599271,2.55493903 L31.1007943,6.35353115 C30.8936299,6.87799025 31.0160367,7.54902367 31.3741726,7.85245582 Z" id="Path"></path>
                    <path d="M24.3888889,35 C24.9104583,35 25.3333333,34.597025 25.3333333,34.1 L25.3333333,24.2 L27.2222222,24.2 C29.3086181,24.2 31,22.5882125 31,20.6 C31,18.6117875 29.3086181,17 27.2222222,17 C25.1358264,17 23.4444444,18.6117875 23.4444444,20.6 L23.4444444,22.4 L21.5555556,22.4 L21.5555556,20.6 C21.5555556,18.6117875 19.8641736,17 17.7777778,17 C15.6913819,17 14,18.6117875 14,20.6 C14,22.5882125 15.6913819,24.2 17.7777778,24.2 L19.6666667,24.2 L19.6666667,34.1 C19.6666667,34.597025 20.0895417,35 20.6111111,35 C21.1326806,35 21.5555556,34.597025 21.5555556,34.1 L21.5555556,24.2 L23.4444444,24.2 L23.4444444,34.1 C23.4444444,34.597025 23.8672014,35 24.3888889,35 Z M25.3333333,20.6 C25.3333333,19.6058375 26.1789653,18.8 27.2222222,18.8 C28.2654792,18.8 29.1111111,19.6058375 29.1111111,20.6 C29.1111111,21.5941625 28.2654792,22.4 27.2222222,22.4 L25.3333333,22.4 L25.3333333,20.6 Z M19.6666667,22.4 L17.7777778,22.4 C16.7345208,22.4 15.8888889,21.5941625 15.8888889,20.6 C15.8888889,19.6058375 16.7345208,18.8 17.7777778,18.8 C18.8210347,18.8 19.6666667,19.6058375 19.6666667,20.6 L19.6666667,22.4 Z" id="Shape"></path>
                    <path d="M23.1999275,8.01588096 C15.198889,7.65711459 8.40110536,13.4205397 8.01675274,20.8889513 C7.79658849,25.1653786 9.75653754,29.2869611 13.3019411,32.0033048 C13.9409047,32.4704838 14.3210648,33.1810358 14.337155,33.9384432 L14.337155,35.9226581 C14.3419141,36.994515 15.0674476,37.9481227 16.150139,38.3054083 L16.150139,39.3072465 C16.1525186,39.9337127 16.4045234,40.5370155 16.8572028,40.9995407 C15.9144511,41.95611 15.9144511,43.4275598 16.8572028,44.384129 C15.8494103,45.4153708 15.9280485,47.0139542 17.0328356,47.9546582 C17.5346923,48.3819625 18.1903126,48.6176145 18.8696151,48.6148645 C19.3575344,48.6268163 19.7635295,48.2672038 19.7762204,47.8117651 C19.7812061,47.6340743 19.7245504,47.4595564 19.6147515,47.3143364 C19.5860837,47.2626157 19.5520903,47.2135391 19.5132244,47.167953 C19.4386655,47.1042804 19.3535685,47.0522424 19.2612196,47.0139542 C19.2349314,47.001262 19.2086431,46.9911082 19.1814483,46.9809545 C19.089666,46.9497528 18.9934646,46.9317722 18.8959034,46.9276472 C18.8868384,46.9276472 18.87868,46.9225703 18.8696151,46.9225703 C18.3690049,46.9225703 17.9631231,46.543708 17.9631231,46.0764232 C17.9631231,45.6091385 18.3690049,45.2302761 18.8696151,45.2302761 L22.4955832,45.2302761 C22.9961934,45.2302761 23.4020752,44.8514138 23.4020752,44.384129 C23.4020752,43.9168443 22.9961934,43.537982 22.4955832,43.537982 L18.8696151,43.537982 C18.3690049,43.537982 17.9631231,43.1591196 17.9631231,42.6918349 C17.9631231,42.2245501 18.3690049,41.8456878 18.8696151,41.8456878 L22.4955832,41.8456878 C22.9961934,41.8456878 23.4020752,41.4668254 23.4020752,40.9995407 C23.4020752,40.532256 22.9961934,40.1533936 22.4955832,40.1533936 L18.8696151,40.1533936 C18.3690049,40.1533936 17.9631231,39.7745312 17.9631231,39.3072465 L17.9631231,38.4610994 L22.4955832,38.4610994 C22.9961934,38.4610994 23.4020752,38.0822371 23.4020752,37.6149523 C23.4020752,37.1476676 22.9961934,36.7688052 22.4955832,36.7688052 L17.0566311,36.7688052 C16.5560208,36.7688052 16.150139,36.3899429 16.150139,35.9226581 L16.150139,33.9384432 C16.1352952,32.6732418 15.5110622,31.4814436 14.4504665,30.6934691 C9.03553646,26.5395215 8.25357378,19.0746004 12.7037697,14.0201407 C15.2494259,11.1288561 19.1090423,9.53048425 23.1138107,9.70902129 C29.8113137,10.0809029 35.0722534,15.2044293 35.1864714,21.4662351 C35.2189918,25.0678602 33.4840794,28.4853425 30.4772454,30.7425457 C29.4245815,31.5518853 28.8226708,32.7636737 28.8410273,34.0365963 L28.8410273,35.9226581 C28.8410273,36.3899429 28.4351455,36.7688052 27.9345353,36.7688052 L25.2150592,36.7688052 C24.714449,36.7688052 24.3085672,37.1476676 24.3085672,37.6149523 C24.3085672,38.0822371 24.714449,38.4610994 25.2150592,38.4610994 L27.0280432,38.4610994 L27.0280432,39.3072465 C27.0280432,39.7745312 26.6221614,40.1533936 26.1215512,40.1533936 L25.2150592,40.1533936 C24.714449,40.1533936 24.3085672,40.532256 24.3085672,40.9995407 C24.3085672,41.4668254 24.714449,41.8456878 25.2150592,41.8456878 L26.1215512,41.8456878 C26.6221614,41.8456878 27.0280432,42.2245501 27.0280432,42.6918349 C27.0280432,43.1591196 26.6221614,43.537982 26.1215512,43.537982 L25.2150592,43.537982 C24.714449,43.537982 24.3085672,43.9168443 24.3085672,44.384129 C24.3085672,44.8514138 24.714449,45.2302761 25.2150592,45.2302761 L26.1215512,45.2302761 C26.6221614,45.2302761 27.0280432,45.6091385 27.0280432,46.0764232 C27.0280432,46.543708 26.6221614,46.9225703 26.1215512,46.9225703 L21.5890911,46.9225703 C21.0884809,46.9225703 20.6825991,47.3014327 20.6825991,47.7687174 C20.6825991,48.2360021 21.0884809,48.6148645 21.5890911,48.6148645 L25.0600491,48.6148645 C24.5595522,49.936652 23.0058249,50.629435 21.589771,50.162256 C21.1562412,50.0192571 20.7687159,49.7758841 20.4632281,49.4550886 C20.1303189,49.1060529 19.5571893,49.074957 19.1832613,49.3857045 C18.8093334,49.696452 18.7760198,50.2314285 19.108929,50.5804642 C20.7667896,52.3242676 23.6251855,52.483449 25.4933523,50.9360575 C26.2650036,50.2968991 26.7793245,49.4307618 26.9509914,48.4811733 C28.3706712,48.0669843 29.1618121,46.6569859 28.7181976,45.3318138 C28.6003536,44.9797108 28.4008121,44.6561653 28.1339635,44.384129 C29.0767152,43.4275598 29.0767152,41.95611 28.1339635,40.9995407 C28.586643,40.5370155 28.8386477,39.9337127 28.8410273,39.3072465 L28.8410273,38.3054083 C29.9237187,37.9481227 30.6492522,36.994515 30.6540113,35.9226581 L30.6540113,34.0365963 C30.641887,33.2764389 30.994739,32.5509735 31.6157993,32.0591505 C35.0541236,29.4789307 37.0377547,25.5714235 36.9994554,21.4535429 C36.8684673,14.2964077 30.8550259,8.44075257 23.1999275,8.01588096 Z" id="Path"></path>
                </g>
            </g>
        </g>
    </g>
</svg>