<?xml version="1.0" encoding="UTF-8"?>
<svg width="94px" height="88px" viewBox="0 0 94 88" version="1.1" xmlns="http://www.w3.org/2000/svg" xmlns:xlink="http://www.w3.org/1999/xlink">
    <title>iconfinder_vector_66_14_473629</title>
    <defs>
        <filter id="filter-1">
            <feColorMatrix in="SourceGraphic" type="matrix" values="0 0 0 0 0.392157 0 0 0 0 0.447059 0 0 0 0 0.917647 0 0 0 1.000000 0"></feColorMatrix>
        </filter>
    </defs>
    <g id="Page-1" stroke="none" stroke-width="1" fill="none" fill-rule="evenodd">
        <g id="Home-Copy-22" transform="translate(-59.000000, -382.000000)">
            <g id="Group-3" transform="translate(26.000000, 349.000000)">
                <g filter="url(#filter-1)" id="iconfinder_vector_66_14_473629">
                    <g transform="translate(33.000000, 33.000000)">
                        <g id="Group" transform="translate(6.000000, 0.000000)" fill="#5E889E" fill-rule="nonzero">
                            <path d="M86.4889412,14.1581702 L73.6207059,26.9579574 C72.4305882,28.1431489 70.7868235,28.874766 68.9717647,28.874766 C67.1548235,28.874766 65.5072941,28.1431489 64.3167059,26.9579574 L61.2150588,23.8742128 C60.0244706,22.6890213 59.2908235,21.0530638 59.2908235,19.2457872 C59.2908235,17.4385106 60.0244706,15.8034894 61.2150588,14.619234 L74.0832941,1.81944681 C66.216,-1.24651064 56.9251765,0.378212766 50.568,6.70204255 C42.0032941,15.2197872 42.0032941,29.0315745 50.568,37.5488511 C59.1331765,46.0684681 73.0169412,46.0684681 81.5797647,37.5488511 C87.9392941,31.2259574 89.5717647,21.9854894 86.4889412,14.1581702 Z" id="Path"></path>
                            <path d="M17.4503529,53.6266383 L4.09694118,65.9419574 C1.73647059,68.1204255 0.235764706,71.214 0.169882353,74.6694043 C0.104,78.1248085 1.48611765,81.2712766 3.76376471,83.5363404 L4.33741176,84.1064681 C6.61317647,86.3710638 9.77647059,87.746766 13.2503529,87.681234 C16.7261176,87.6166383 19.8329412,86.1239149 22.024,83.7741277 L34.4051765,70.4917447 L17.4503529,53.6266383 Z M16.8672941,78.7829362 C14.7289412,80.9141277 11.2569412,80.9141277 9.11482353,78.7829362 C6.97458824,76.6540851 6.97458824,73.2005532 9.11482353,71.0717021 C11.2569412,68.9405106 14.7289412,68.9405106 16.8672941,71.0717021 C19.0075294,73.2005532 19.0075294,76.6540851 16.8672941,78.7829362 Z" id="Shape"></path>
                        </g>
                        <g id="Group" transform="translate(0.000000, 6.000000)" fill="#5E889E" fill-rule="nonzero">
                            <path d="M44.5445909,26.9034545 C43.6947841,26.9034545 42.9256193,27.2421705 42.3696136,27.7924091 L28.0738068,41.917375 C27.5159148,42.4671477 27.1730682,43.2275114 27.1730682,44.0661477 C27.1730682,44.9061818 27.5159148,45.6660795 28.0738068,46.2149205 L60.0830398,77.8408295 C65.2361136,82.9290227 73.581858,82.9271591 78.7306875,77.8408295 C83.881875,72.7531023 83.881875,64.5060455 78.7306875,59.4178523 L46.7195682,27.7924091 C46.1635625,27.2421705 45.3948693,26.9034545 44.5445909,26.9034545 Z M66.4551761,69.7037273 C67.3092273,70.5484205 67.3092273,71.9298409 66.4551761,72.7736023 C65.601125,73.6187614 64.2009716,73.6187614 63.3469205,72.7736023 L35.3768636,45.1405341 C34.5213977,44.2967727 34.5213977,42.9153523 35.3768636,42.0697273 C36.2309148,41.2259659 37.6291818,41.2259659 38.4846477,42.0697273 L66.4551761,69.7037273 Z M73.6040227,62.6419432 C74.4580739,63.4866364 74.4580739,64.8680568 73.6040227,65.71275 C72.7499716,66.5574432 71.3498182,66.5574432 70.495767,65.71275 L42.5257102,38.0782841 C41.668358,37.2335909 41.668358,35.8521705 42.5257102,35.0079432 C43.377875,34.16325 44.7780284,34.16325 45.631608,35.008875 L73.6040227,62.6419432 Z" id="Shape"></path>
                            <path d="M8.93570455,17.0648523 L12.4320795,16.9446477 L30.7161307,35.0074773 L35.3768636,30.4015 L17.0951705,12.3400682 L17.2158977,8.88488636 C17.2253295,8.59182955 17.1611932,8.29085227 17.0121705,8.01223864 C16.8636193,7.73315909 16.6448011,7.51231818 16.3920284,7.35484091 L4.66309091,0.0596363636 L0,4.66375 L7.38841477,16.2541705 C7.54498295,16.5038977 7.77134659,16.7158864 8.05194318,16.8640455 C8.33442614,17.0112727 8.63813068,17.0751023 8.93570455,17.0648523 Z" id="Path"></path>
                        </g>
                    </g>
                </g>
            </g>
        </g>
    </g>
</svg>