<?xml version="1.0" encoding="UTF-8"?>
<svg width="71px" height="92px" viewBox="0 0 71 92" version="1.1" xmlns="http://www.w3.org/2000/svg" xmlns:xlink="http://www.w3.org/1999/xlink">
    <title>iconfinder_Flat_business-22_5813696</title>
    <defs>
        <filter id="filter-1">
            <feColorMatrix in="SourceGraphic" type="matrix" values="0 0 0 0 0.392157 0 0 0 0 0.447059 0 0 0 0 0.917647 0 0 0 1.000000 0"></feColorMatrix>
        </filter>
    </defs>
    <g id="Page-1" stroke="none" stroke-width="1" fill="none" fill-rule="evenodd">
        <g id="Home-Copy-22" transform="translate(-238.000000, -380.000000)">
            <g id="Group-4" transform="translate(196.000000, 349.000000)">
                <g filter="url(#filter-1)" id="iconfinder_Flat_business-22_5813696">
                    <g transform="translate(42.000000, 31.000000)">
                        <path d="M70.8892065,22.9414758 C70.8892065,22.9234684 70.8892065,22.9234684 70.8713187,22.905461 C70.7818799,22.6893717 70.6566656,22.5092973 70.5135635,22.3292229 C70.5135635,22.3292229 70.5135635,22.3112155 70.4956757,22.3112155 L62.6608353,14.0998238 L62.6608353,7.50910159 C62.6608353,3.36739088 59.3158236,0 55.201638,0 L7.63807499,0 C3.41656282,0 0,3.45742807 0,7.68917596 L0,77.2879233 C0,81.5376786 3.43445058,84.9770992 7.63807499,84.9770992 L8.38936105,84.9770992 C8.72922856,88.9027207 12.020577,92 15.9916605,92 L63.3584581,92 C67.5799703,92 70.9965331,88.5425719 70.9965331,84.310824 L70.9965331,23.607751 C71.0144209,23.3736543 70.9607576,23.1395576 70.8892065,22.9414758 Z M56.9546388,13.5596007 L64.7715914,21.7349775 L56.9546388,21.7349775 L56.9546388,13.5596007 Z M3.73854256,77.3059307 L3.73854256,7.68917596 C3.73854256,5.51027598 5.49154338,3.74554707 7.65596275,3.74554707 L55.2195257,3.74554707 C57.2766185,3.74554707 58.9401805,5.42023879 58.9401805,7.49109415 L58.9401805,10.1922098 L56.4358936,7.59913877 C56.4358936,7.59913877 56.4180059,7.59913877 56.4180059,7.58113134 C56.3643426,7.52710902 56.2927915,7.47308671 56.2391283,7.4190644 C56.2033527,7.40105696 56.185465,7.36504208 56.1496894,7.34703464 C56.0602506,7.27500489 55.952924,7.22098258 55.8455975,7.1849677 C55.8455975,7.1849677 55.8455975,7.1849677 55.8277097,7.1849677 C55.5951688,7.09493051 55.3626278,7.0409082 55.0943114,7.0409082 L16.0095483,7.0409082 C11.7880361,7.0409082 8.37147329,10.4983363 8.37147329,14.7300842 L8.37147329,81.2495596 L7.65596275,81.2495596 C5.49154338,81.2315522 3.73854256,79.4668233 3.73854256,77.3059307 Z M63.3763459,88.2544529 L16.0095483,88.2544529 C13.8451289,88.2544529 12.0921281,86.489724 12.0921281,84.310824 L12.0921281,14.7120767 C12.0921281,12.5331767 13.8451289,10.7684478 16.0095483,10.7684478 L53.2160962,10.7684478 L53.2160962,23.607751 C53.2160962,24.6521824 54.0568211,25.4805246 55.0764236,25.4805246 L67.2758783,25.4805246 L67.2758783,84.310824 C67.2758783,86.489724 65.5228775,88.2544529 63.3763459,88.2544529 Z" id="Shape" fill="#232323" fill-rule="nonzero"></path>
                        <path d="M41.7977321,26 L45.2025387,26 C46.204969,26 47,25.0961538 47,24 C47,22.8846154 46.1876857,22 45.2025387,22 L41.7977321,22 C40.7953018,22 40.0002708,22.9038462 40.0002708,24 C39.9829875,25.0961538 40.7953018,26 41.7977321,26 Z" id="Path" fill="#232323" fill-rule="nonzero"></path>
                        <path d="M19.9217328,26 L32.0785567,26 C33.1501308,26 34,25.0961538 34,24 C34,22.8846154 33.1316554,22 32.0785567,22 L19.9217328,22 C18.8501586,22 18.0002895,22.9038462 18.0002895,24 C17.981814,25.0961538 18.8501586,26 19.9217328,26 Z" id="Path" fill="#232323" fill-rule="nonzero"></path>
                        <path d="M57.1776435,69 L31.8223565,69 C30.8060423,69 30,69.9038462 30,71 C30,72.0961538 30.823565,73 31.8223565,73 L57.1776435,73 C58.1939577,73 59,72.0961538 59,71 C59,69.9038462 58.1939577,69 57.1776435,69 Z" id="Path" fill="#232323" fill-rule="nonzero"></path>
                        <path d="M24.2030238,69 L19.7969762,69 C18.7948164,69 18,69.9038462 18,71 C18,72.0961538 18.812095,73 19.7969762,73 L24.2030238,73 C25.2051836,73 26,72.0961538 26,71 C26,69.9038462 25.2051836,69 24.2030238,69 Z" id="Path" fill="#232323" fill-rule="nonzero"></path>
                        <path d="M58.0901503,57 L50.9098497,57 C49.8447412,57 49,57.9038462 49,59 C49,60.0961538 49.8631052,61 50.9098497,61 L58.0901503,61 C59.1552588,61 60,60.0961538 60,59 C60,57.9038462 59.1552588,57 58.0901503,57 Z" id="Path" fill="#232323" fill-rule="nonzero"></path>
                        <path d="M20.8325991,61 L41.1674009,61 C42.1894273,61 43,60.0961538 43,59 C43,57.9038462 42.1718062,57 41.1674009,57 L20.8325991,57 C19.8105727,57 19,57.9038462 19,59 C19,60.0961538 19.8105727,61 20.8325991,61 Z" id="Path" fill="#232323" fill-rule="nonzero"></path>
                        <path d="M58.110999,46 L43.889001,46 C42.8355197,46 42,46.9038462 42,48 C42,49.0961538 42.8536831,50 43.889001,50 L58.110999,50 C59.1644803,50 60,49.0961538 60,48 C60,46.9038462 59.1644803,46 58.110999,46 Z" id="Path" fill="#232323" fill-rule="nonzero"></path>
                        <path d="M19.8787276,50 L34.139165,50 C35.1769384,50 36,49.0961538 36,48 C36,46.9038462 35.1590457,46 34.139165,46 L19.860835,46 C18.8230616,46 18,46.9038462 18,48 C18,49.0961538 18.8409543,50 19.8787276,50 Z" id="Path" fill="#232323" fill-rule="nonzero"></path>
                        <path d="M57.1776435,34 L31.8223565,34 C30.8060423,34 30,34.9038462 30,36 C30,37.1153846 30.823565,38 31.8223565,38 L57.1776435,38 C58.1939577,38 59,37.0961538 59,36 C59,34.9038462 58.1939577,34 57.1776435,34 Z" id="Path" fill="#232323" fill-rule="nonzero"></path>
                        <path d="M19.838588,38 L23.1616889,38 C24.1869009,38 25,37.0961538 25,36 C25,34.8846154 24.1692248,34 23.1616889,34 L19.838588,34 C18.8133761,34 18.0002769,34.9038462 18.0002769,36 C17.9826009,37.0961538 18.8133761,38 19.838588,38 Z" id="Path" fill="#232323" fill-rule="nonzero"></path>
                    </g>
                </g>
            </g>
        </g>
    </g>
</svg>