<?xml version="1.0" encoding="UTF-8"?>
<svg width="69px" height="85px" viewBox="0 0 69 85" version="1.1" xmlns="http://www.w3.org/2000/svg" xmlns:xlink="http://www.w3.org/1999/xlink">
    <title>iconfinder_Electrical_plug_plug_plug_connector_plug_in_power_plug_4753023</title>
    <defs>
        <filter id="filter-1">
            <feColorMatrix in="SourceGraphic" type="matrix" values="0 0 0 0 0.392157 0 0 0 0 0.447059 0 0 0 0 0.917647 0 0 0 1.000000 0"></feColorMatrix>
        </filter>
    </defs>
    <g id="Page-1" stroke="none" stroke-width="1" fill="none" fill-rule="evenodd">
        <g id="Home-Copy-14" transform="translate(-69.000000, -507.000000)">
            <g filter="url(#filter-1)" id="iconfinder_Electrical_plug_plug_plug_connector_plug_in_power_plug_4753023">
                <g transform="translate(69.000000, 507.000000)">
                    <path d="M59.9095745,0 L59.9095745,59.0749941 C59.9095745,68.7102909 52.0986223,76.5212423 42.4633245,76.5212423 C32.8280267,76.5212423 25.0170745,68.7102909 25.0170745,59.0749941 L25.0170745,50.5749949 C32.9190889,48.9831074 38.6168063,42.0606477 38.6595745,34 L38.6595745,25.5 L42.9095745,25.5 L42.9095745,17 L34.4095745,17 L34.4095745,0 L25.9095745,0 L25.9095745,17 L17.4095745,17 L17.4095745,0 L8.90957447,0 L8.90957447,17 L0.409574468,17 L0.409574468,25.5 L4.65957447,25.5 L4.65957447,34 C4.70126145,41.3722876 9.49002943,47.8774592 16.5170745,50.107495 L16.5170745,59.0324941 C16.5053386,73.3622107 28.1123564,84.9882551 42.4420745,85 C56.7717925,85.0117272 68.3978382,73.4047107 68.4095745,59.0749941 L68.4095745,0 L59.9095745,0 Z" id="Path" fill="#000000" fill-rule="nonzero"></path>
                </g>
            </g>
        </g>
    </g>
</svg>