<?xml version="1.0" encoding="UTF-8"?>
<svg width="160px" height="178px" viewBox="0 0 160 178" version="1.1" xmlns="http://www.w3.org/2000/svg" xmlns:xlink="http://www.w3.org/1999/xlink">
    <title>like</title>
    <defs>
        <filter id="filter-1">
            <feColorMatrix in="SourceGraphic" type="matrix" values="0 0 0 0 0.392157 0 0 0 0 0.447059 0 0 0 0 0.917647 0 0 0 1.000000 0"></feColorMatrix>
        </filter>
    </defs>
    <g id="Page-1" stroke="none" stroke-width="1" fill="none" fill-rule="evenodd">
        <g id="Configure-Sensorfloor-Screen-Copy-38" transform="translate(-26.000000, -259.000000)">
            <g filter="url(#filter-1)" id="like">
                <g transform="translate(26.000000, 259.000000)">
                    <path d="M111.5,0 C109.5673,0 108,1.56051515 108,3.48484848 L108,19.5151515 C108,21.4394848 109.5673,23 111.5,23 C113.4327,23 115,21.4394848 115,19.5151515 L115,3.48484848 C115,1.56051515 113.4327,0 111.5,0 Z" id="Path" fill="#000000" fill-rule="nonzero"></path>
                    <path d="M31.5,109 C29.568,109 28,110.568 28,112.5 C28,114.432 29.568,116 31.5,116 C33.432,116 35,114.432 35,112.5 C35,110.568 33.432,109 31.5,109 Z" id="Path" fill="#000000" fill-rule="nonzero"></path>
                    <path d="M160,101.596059 C160,93.9362167 153.758609,87.7044335 146.086957,87.7044335 L120.121043,87.7044335 C124.14087,77.4235887 125.768,65.3225936 125.454261,54.5506798 C125.394435,52.4950665 125.315478,51.3062906 125.208696,50.5578793 C125.02887,43.0539704 118.857739,37 111.304348,37 C103.632696,37 97.3913043,43.2317833 97.3913043,50.8916256 L97.3913043,54.364532 C97.3913043,76.3292759 69.1429565,88.6702488 47.8246957,93.9622635 C46.2128696,90.2830665 42.5335652,87.7044335 38.2608696,87.7044335 L3.47826087,87.7044335 C1.55756522,87.7044335 0,89.259601 0,91.1773399 L0,174.527094 C0,176.444833 1.55756522,178 3.47826087,178 L38.2608696,178 C42.5050435,178 46.1631304,175.455401 47.7916522,171.815101 C49.5568696,172.267273 51.1954783,172.694441 52.7081739,173.088963 C64.8525217,176.255906 71.5422609,178 87.8121739,178 L125.217391,178 C132.889043,178 139.130435,171.768217 139.130435,164.108374 C139.130435,161.252256 138.261913,158.595483 136.775652,156.385325 C142.14887,154.508914 146.086957,149.382904 146.086957,143.270936 C146.086957,140.425236 145.239652,137.759781 143.757913,135.539552 C149.107478,133.660015 153.043478,128.545813 153.043478,122.433498 C153.043478,119.577379 152.174957,116.920606 150.688696,114.710448 C156.061913,112.834037 160,107.708027 160,101.596059 Z M41.7391304,167.581281 C41.7391304,169.496241 40.1787826,171.054187 38.2608696,171.054187 L6.95652174,171.054187 L6.95652174,94.6502463 L38.2608696,94.6502463 C40.1787826,94.6502463 41.7391304,96.2081921 41.7391304,98.1231527 L41.7391304,167.581281 Z M146.086957,108.541872 C138.626435,108.541872 136.848,108.541872 128.695652,108.541872 C126.774957,108.541872 125.217391,110.097039 125.217391,112.014778 C125.217391,113.932517 126.774957,115.487685 128.695652,115.487685 L139.130435,115.487685 C142.966261,115.487685 146.086957,118.603576 146.086957,122.433498 C146.086957,126.26967 142.972522,129.37931 139.130435,129.37931 L121.73913,129.37931 C119.818435,129.37931 118.26087,130.934478 118.26087,132.852217 C118.26087,134.769956 119.818435,136.325123 121.73913,136.325123 L132.173913,136.325123 C135.964174,136.325123 139.130435,139.348288 139.130435,143.270936 C139.130435,147.107108 136.016,150.216749 132.173913,150.216749 C124.713391,150.216749 122.934957,150.216749 114.782609,150.216749 C112.861913,150.216749 111.304348,151.771916 111.304348,153.689655 C111.304348,155.607394 112.861913,157.162562 114.782609,157.162562 L125.217391,157.162562 C129.053217,157.162562 132.173913,160.278453 132.173913,164.108374 C132.173913,167.938296 129.053217,171.054187 125.217391,171.054187 L87.8121739,171.054187 C72.4358261,171.054187 66.4302609,169.488254 54.466087,166.368542 C52.7133913,165.911507 50.7909565,165.410367 48.6956522,164.876929 L48.6956522,100.91016 C73.8671304,94.923564 104.347826,80.3109631 104.347826,54.364532 L104.347826,50.8916256 C104.347826,47.0617044 107.468522,43.9458128 111.304348,43.9458128 C115.133217,43.9458128 118.253565,47.0568424 118.26087,50.8808596 L118.26087,50.8916256 C118.26087,52.4009507 120.147478,70.9243916 112.582261,87.7044335 L100.869565,87.7044335 C98.9488696,87.7044335 97.3913043,89.259601 97.3913043,91.1773399 C97.3913043,93.0950788 98.9488696,94.6502463 100.869565,94.6502463 C103.298435,94.6502463 142.122435,94.6502463 146.086957,94.6502463 C149.922783,94.6502463 153.043478,97.7661379 153.043478,101.596059 C153.043478,105.432232 149.929043,108.541872 146.086957,108.541872 Z" id="Shape" fill="#000000" fill-rule="nonzero"></path>
                    <path d="M31.5,122 C29.5673,122 28,123.5673 28,125.5 L28,153.5 C28,155.4327 29.5673,157 31.5,157 C33.4327,157 35,155.4327 35,153.5 L35,125.5 C35,123.5673 33.4327,122 31.5,122 Z" id="Path" fill="#000000" fill-rule="nonzero"></path>
                    <path d="M83.5,44 L69.5,44 C67.5673,44 66,45.5673 66,47.5 C66,49.4327 67.5673,51 69.5,51 L83.5,51 C85.4327,51 87,49.4327 87,47.5 C87,45.5673 85.4327,44 83.5,44 Z" id="Path" fill="#000000" fill-rule="nonzero"></path>
                    <path d="M153.5,44 L139.5,44 C137.5673,44 136,45.5673 136,47.5 C136,49.4327 137.5673,51 139.5,51 L153.5,51 C155.4327,51 157,49.4327 157,47.5 C157,45.5673 155.4327,44 153.5,44 Z" id="Path" fill="#000000" fill-rule="nonzero"></path>
                    <path d="M142.968739,15.0310206 C141.593373,13.6563265 139.364477,13.6563265 137.988758,15.0310206 L128.031261,24.9887501 C126.656246,26.3637964 126.656246,28.5934489 128.031261,29.9688473 C129.406979,31.3438936 131.635523,31.3435415 133.011242,29.9688473 L142.968739,20.0111178 C144.343754,18.6360715 144.343754,16.406419 142.968739,15.0310206 Z" id="Path" fill="#000000" fill-rule="nonzero"></path>
                    <path d="M93.9687393,24.9887501 L84.0112418,15.0310206 C82.6358755,13.6563265 80.4069792,13.6563265 79.0312607,15.0310206 C77.6562464,16.4060669 77.6562464,18.6357194 79.0312607,20.0111178 L88.9887582,29.9688473 C90.3648288,31.3438936 92.593373,31.3435415 93.9687393,29.9688473 C95.3437536,28.5938011 95.3437536,26.3641485 93.9687393,24.9887501 Z" id="Path" fill="#000000" fill-rule="nonzero"></path>
                </g>
            </g>
        </g>
    </g>
</svg>