<?xml version="1.0" encoding="UTF-8"?>
<svg width="73px" height="80px" viewBox="0 0 73 80" version="1.1" xmlns="http://www.w3.org/2000/svg" xmlns:xlink="http://www.w3.org/1999/xlink">
    <title>iconfinder_logo_brand_brands_logos_vlc_media_player_1916048</title>
    <defs>
        <filter id="filter-1">
            <feColorMatrix in="SourceGraphic" type="matrix" values="0 0 0 0 0.392157 0 0 0 0 0.447059 0 0 0 0 0.917647 0 0 0 1.000000 0"></feColorMatrix>
        </filter>
    </defs>
    <g id="Page-1" stroke="none" stroke-width="1" fill="none" fill-rule="evenodd">
        <g id="Home-Copy-14" transform="translate(-237.000000, -510.000000)">
            <g filter="url(#filter-1)" id="iconfinder_logo_brand_brands_logos_vlc_media_player_1916048">
                <g transform="translate(237.000000, 510.000000)">
                    <path d="M30.0975561,12.186741 C32.3219774,12.7451971 34.6145966,13.018372 36.9147846,12.9990416 C39.2149726,13.018372 41.5075919,12.7451971 43.7320131,12.186741 C44.1800486,12.0736332 44.5604354,11.7914659 44.785522,11.4052581 C45.0106086,11.0190502 45.0609796,10.5621152 44.9250281,10.1397433 L42.8457734,3.47887787 C42.1698969,1.36023851 40.0889686,-0.064232373 37.7669382,0.00223102438 L36.0285449,0.00223102438 C33.7692596,0.00861240097 31.7784682,1.41869965 31.1201404,3.47887787 L29.0749719,10.1722353 C28.9390204,10.5946072 28.9893914,11.0515423 29.214478,11.4377501 C29.4395646,11.8239579 29.8199514,12.1061253 30.2679869,12.219233 L30.0975561,12.186741 Z" id="Path" fill="#303C42" fill-rule="nonzero"></path>
                    <path d="M36.5,47 C43.9537621,47 51.9066601,45.1648637 52.9382075,41.0527991 C53.0205975,40.7527303 53.0205975,40.4352999 52.9382075,40.135231 L48.8785692,26.201789 C48.7484172,25.767608 48.4535236,25.40469 48.0596754,25.1939973 C47.6658271,24.9833047 47.2057922,24.942367 46.7821986,25.0803168 C40.0805088,27.094011 32.9527669,27.094011 26.2510771,25.0803168 C25.8274835,24.942367 25.3674486,24.9833047 24.9736004,25.1939973 C24.5797521,25.40469 24.2848585,25.767608 24.1547065,26.201789 L20.0617925,40.203199 C19.9794025,40.5032679 19.9794025,40.8206983 20.0617925,41.1207671 C21.0933399,45.1648637 29.0462379,47 36.5,47 Z" id="Path" fill="#303C42" fill-rule="nonzero"></path>
                    <path d="M72.6152667,72 L65.4134784,53.3333363 C64.7079973,51.3580335 62.8563492,50.0296346 60.7671633,50 L56.0212844,50 C55.4479593,49.9988498 54.9146557,50.2950258 54.6107934,50.783335 C54.3069311,51.2716442 54.2755613,51.8829029 54.527826,52.4000031 C54.67613,52.6888666 54.7556552,53.008361 54.7601417,53.3333363 C54.7601417,56.4666693 46.96097,60 36.5067612,60 C26.0525523,60 18.2533806,56.4666693 18.2533806,53.3333363 C18.2578671,53.008361 18.3373924,52.6888666 18.4856963,52.4000031 C18.737961,51.8829029 18.7065912,51.2716442 18.4027289,50.783335 C18.0988666,50.2950258 17.565563,49.9988498 16.9922379,50 L12.246359,50 C10.1571732,50.0296346 8.30552502,51.3580335 7.60004391,53.3333363 L0.398255576,72 C0.137840821,72.6693843 0.00282213941,73.3813371 0,74.1000007 C0,77.3584803 2.63000015,80 5.87426975,80 L67.1392526,80 C69.0688321,79.9955282 70.8731777,79.0395592 71.966343,77.442536 C73.0595083,75.8455129 73.3020732,73.8111167 72.6152667,72 Z" id="Path" fill="#303C42" fill-rule="nonzero"></path>
                </g>
            </g>
        </g>
    </g>
</svg>